<?xml version="1.0" encoding="UTF-8" standalone="no"?>
<svg
   width="273"
   height="274"
   viewBox="0 0 273 274"
   fill="none"
   version="1.1"
   id="svg1"
   sodipodi:docname="Ellipse 3.svg"
   inkscape:version="0.0"
   xmlns:inkscape="http://www.inkscape.org/namespaces/inkscape"
   xmlns:sodipodi="http://sodipodi.sourceforge.net/DTD/sodipodi-0.dtd"
   xmlns="http://www.w3.org/2000/svg"
   xmlns:svg="http://www.w3.org/2000/svg">
  <defs
     id="defs1">
    <linearGradient
       id="paint0_linear_88_5376"
       x1="31"
       y1="-9.4157696"
       x2="176.5"
       y2="242.584"
       gradientUnits="userSpaceOnUse"
       gradientTransform="translate(34.238107,52.488353)">
      <stop
         stop-color="#CB1637"
         id="stop24" />
      <stop
         offset="1"
         stop-color="#AD0020"
         stop-opacity="0.79"
         id="stop25" />
    </linearGradient>
  </defs>
  <sodipodi:namedview
     id="namedview1"
     pagecolor="#ffffff"
     bordercolor="#000000"
     borderopacity="0.25"
     inkscape:showpageshadow="2"
     inkscape:pageopacity="0.0"
     inkscape:pagecheckerboard="0"
     inkscape:deskcolor="#d1d1d1"
     inkscape:zoom="2.0051897"
     inkscape:cx="93.258011"
     inkscape:cy="125.92325"
     inkscape:window-width="1920"
     inkscape:window-height="991"
     inkscape:window-x="-9"
     inkscape:window-y="-9"
     inkscape:window-maximized="1"
     inkscape:current-layer="svg1" />
  <ellipse
     cx="136.5"
     cy="137"
     rx="136.5"
     ry="137"
     fill="white"
     id="ellipse1"
     style="fill:#ffffff;fill-opacity:1" />
  <circle
     cx="134.7381"
     cy="152.98836"
     r="100.5"
     fill="url(#paint0_linear_88_5376)"
     id="circle1"
     style="fill:url(#paint0_linear_88_5376)" />
  <path
     d="m 128.77621,210.48836 v 2.947 h 9.1029 v 2.947 h -8.7755 v 2.925 h 8.7755 v 2.86 h -9.1029 v 2.947 h 12.3779 v -14.626 z"
     fill="#ffffff"
     id="path1" />
  <path
     d="m 125.09941,210.74836 -3.5615,2.949 -0.1703,-0.039 -2.0145,-4.222 -3.8947,-0.889 3.0567,6.229 -0.0437,0.191 -5.4466,4.243 3.8521,0.879 3.5664,-2.97 0.1703,0.039 2.0096,4.243 3.8947,0.889 -3.0518,-6.25 0.0388,-0.17 5.4466,-4.243 z"
     fill="#ffffff"
     id="path2" />
  <path
     d="m 113.17211,204.37336 -2.8888,5.999 -0.1377,-0.066 c 0.4992,-1.892 -0.2197,-3.619 -2.5012,-4.718 -2.9698,-1.43 -5.5786,-0.239 -7.0846,2.888 -1.506004,3.127 -0.780604,5.948 2.2483,7.406 2.3208,1.118 4.0626,0.721 5.3259,-0.996 l 0.1966,0.094 -1.2976,2.695 2.7339,1.316 6.3554,-13.197 z m -3.9117,8.123 -0.0758,0.158 c -0.843,1.75 -2.1389,1.925 -4.0467,1.007 -1.8685,-0.9 -2.4599,-1.936 -1.5885,-3.745 0.8619,-1.79 2.05,-1.993 3.9381,-1.084 1.8488,0.89 2.5874,1.973 1.7729,3.664 z"
     fill="#ffffff"
     id="path3" />
  <path
     d="m 95.776407,200.23336 -9.1191,11.435 2.5601,2.042 9.119099,-11.435 z"
     fill="#ffffff"
     id="path4" />
  <path
     d="m 84.979207,191.37936 c -2.3275,-2.918 -5.6335,-3.493 -8.3302,-1.342 -2.7307,2.177 -2.8893,5.515 -0.5619,8.433 2.3275,2.919 5.6165,3.507 8.3472,1.329 2.6966,-2.15 2.8723,-5.501 0.5449,-8.42 z m -2.27,1.81 c 1.3883,1.741 1.1991,2.869 -0.3029,4.067 -1.5019,1.198 -2.678,1.159 -4.0663,-0.582 -1.3747,-1.724 -1.1649,-2.897 0.337,-4.094 1.5019,-1.198 2.6575,-1.114 4.0322,0.609 z"
     fill="#ffffff"
     id="path5" />
  <path
     d="m 77.462807,181.23536 -5.7037,2.747 c -1.2391,0.596 -2.0761,0.418 -2.7107,-0.9 -0.5778,-1.199 -0.3141,-1.859 0.7676,-2.38 l 1.0227,-0.493 -1.4207,-2.95 -1.6324,0.786 c -1.9275,0.928 -3.0062,2.562 -1.9454,4.765 0.9566,1.987 2.678,2.442 4.4037,1.95 l 0.0853,0.177 -2.6159,1.26 1.3166,2.733 9.8536,-4.745 z"
     fill="#ffffff"
     id="path6" />
  <path
     d="m 71.542607,165.62436 c -0.7724,-3.383 -2.9048,-5.27 -5.2245,-4.741 l -0.2342,0.054 0.7287,3.192 0.2128,-0.048 c 0.9152,-0.209 1.5552,0.339 1.9876,2.233 0.4711,2.064 -0.0563,2.991 -1.6756,3.45 l -1.9819,-8.683 c -0.3715,0.04 -0.6579,0.06 -1.041,0.148 -3.3414,0.762 -4.6422,3.5 -3.8455,6.99 0.8015,3.512 3.4999,5.426 6.9051,4.649 3.7883,-0.865 4.9797,-3.689 4.1685,-7.244 z m -8.569,2.091 c -0.4275,-1.873 -0.005,-2.865 1.3806,-3.271 l 1.2921,5.661 c -1.4173,0.167 -2.2404,-0.496 -2.6727,-2.39 z"
     fill="#ffffff"
     id="path7" />
  <path
     d="m 71.370107,142.12506 -7.2361,-1.6516 -2.2638,-0.3824 0.0535,-0.2341 2.4241,-0.32 7.0648,-1.5222 0.8841,-3.8734 -5.7047,-4.4369 -2.0452,-1.34 0.0534,-0.2341 2.2104,0.6164 7.236,1.6516 0.7286,-3.1924 -14.2592,-3.2545 -0.991,4.3416 6.2849,4.8379 3.045,2.0609 -0.0534,0.2341 -3.6474,0.5782 -7.7858,1.7383 -0.9861,4.3203 14.2592,3.2546 z"
     fill="#ffffff"
     id="path8" />
  <path
     d="m 78.796107,124.47696 c 1.6197,-3.3633 0.7028,-6.5912 -2.4048,-8.0877 -3.1468,-1.5154 -6.2225,-0.2103 -7.8422,3.153 -1.6196,3.3632 -0.7224,6.5816 2.4245,8.0971 3.1075,1.4965 6.2029,0.2008 7.8225,-3.1624 z m -2.6158,-1.2598 c -0.9661,2.0062 -2.0647,2.3252 -3.7954,1.4917 -1.7308,-0.8335 -2.2057,-1.9103 -1.2396,-3.9164 0.9566,-1.9865 2.104,-2.3062 3.8348,-1.4727 1.7308,0.8335 2.1568,1.911 1.2002,3.8974 z"
     fill="#ffffff"
     id="path9" />
  <path
     d="m 85.934107,115.04916 -4.9495,-3.9471 c -1.0752,-0.8575 -1.2776,-1.689 -0.3657,-2.8325 0.8302,-1.0411 1.5393,-1.0899 2.478,-0.3413 l 0.8875,0.7077 2.0416,-2.5601 -1.4166,-1.1296 c -1.6726,-1.3339 -3.6129,-1.5968 -5.1373,0.3147 -1.3746,1.7238 -1.0378,3.4722 0.1541,4.8136 l -0.1225,0.1536 -2.27,-1.8102 -1.8919,2.3724 8.5507,6.8189 z"
     fill="#ffffff"
     id="path10" />
  <path
     d="m 98.425106,105.91006 c 2.713704,-2.1641 3.488404,-4.9039 2.004904,-6.764302 l -0.1497,-0.1877 -2.560103,2.041602 0.1361,0.1707 c 0.585199,0.7339 0.369199,1.5483 -1.1498,2.7597 -1.6555,1.3202 -2.7191,1.247 -3.8354,-0.0127 l 6.963499,-5.553202 c -0.1973,-0.3174 -0.3401,-0.5665 -0.5851,-0.8737 -2.136799,-2.679505 -5.167699,-2.663705 -7.966699,-0.4316 -2.8161,2.2458 -3.37,5.507602 -1.1923,8.238302 2.4227,3.038 5.4844,2.8859 8.334599,0.6129 z m -5.601099,-6.813502 c 1.5019,-1.1977 2.5793,-1.2472 3.5459,-0.1752 l -4.5399,3.620402 c -0.7652,-1.2046 -0.525,-2.2338 0.994,-3.445202 z"
     fill="#ffffff"
     id="path11" />
  <path
     d="m 125.38331,91.991553 -0.6267,-2.7455 -7.9383,1.8119 0.6266,2.7455 z"
     fill="#ffffff"
     id="path12" />
  <path
     d="m 153.60111,99.295958 0.655,-2.873205 -8.874,-2.0256 0.655,-2.8731 8.556,1.9527 0.651,-2.8518 -8.556,-1.9528 0.637,-2.788 8.874,2.0256 0.656,-2.8731 -12.067,-2.7542 -3.255,14.259205 z"
     fill="#ffffff"
     id="path13" />
  <path
     d="m 157.60111,100.02846 4.129,-2.082302 0.157,0.0757 1.025,4.564002 3.599,1.7333 -1.594,-6.752302 0.085,-0.177 6.254,-2.924405 -3.56,-1.7143 -4.138,2.102 -0.157,-0.0758 -1.015,-4.5836 -3.599,-1.7333 1.584,6.772 -0.076,0.1574 -6.254,2.924305 z"
     fill="#ffffff"
     id="path14" />
  <path
     d="m 168.71811,108.38416 4.152,-5.2055 0.119,0.0953 c -0.908,1.7333 -0.591,3.5772 1.389,5.156 2.577,2.0552 5.385,1.4747 7.549,-1.239 2.164,-2.7137 2.085,-5.625 -0.543,-7.721102 -2.014,-1.606 -3.801,-1.6067 -5.415,-0.2132 l -0.17,-0.1361 1.864,-2.3382 -2.372,-1.891905 -9.133,11.452107 z m 5.622,-7.0488 0.108,-0.1365 c 1.212,-1.519002 2.514,-1.401702 4.17,-0.0814 1.621,1.293 1.967,2.4345 0.715,4.0047 -1.238,1.5531 -2.442,1.4868 -4.08,0.1802 -1.605,-1.2794 -2.084,-2.4992 -0.913,-3.967 z"
     fill="#ffffff"
     id="path15" />
  <path
     d="m 184.84411,116.47276 11.435,-9.1191 -2.042,-2.5601 -11.435,9.1191 z"
     fill="#ffffff"
     id="path16" />
  <path
     d="m 192.82611,128.58596 c 1.619,3.3632 4.715,4.6589 7.822,3.1624 3.147,-1.5154 4.044,-4.7339 2.425,-8.0971 -1.62,-3.3632 -4.696,-4.6684 -7.842,-3.1529 -3.108,1.4965 -4.025,4.7244 -2.405,8.0876 z m 2.616,-1.2597 c -0.967,-2.0061 -0.531,-3.0639 1.2,-3.8974 1.731,-0.8335 2.868,-0.5335 3.835,1.4727 0.956,1.9864 0.491,3.0828 -1.24,3.9163 -1.731,0.8335 -2.839,0.4948 -3.795,-1.4916 z"
     fill="#ffffff"
     id="path17" />
  <path
     d="m 197.84011,140.23086 6.172,-1.4087 c 1.341,-0.306 2.117,0.0542 2.443,1.4801 0.296,1.2982 -0.108,1.883 -1.278,2.1502 l -1.107,0.2526 0.729,3.1923 1.766,-0.4031 c 2.086,-0.4761 3.501,-1.8291 2.957,-4.2128 -0.491,-2.1495 -2.068,-2.9763 -3.859,-2.8808 l -0.044,-0.1915 2.83,-0.6461 -0.675,-2.9582 -10.662,2.4336 z"
     fill="#ffffff"
     id="path18" />
  <path
     d="m 200.10311,156.84136 c 0,3.471 1.659,5.785 4.038,5.785 h 0.24 v -3.275 h -0.218 c -0.939,0 -1.441,-0.676 -1.441,-2.619 0,-2.118 0.721,-2.904 2.402,-2.991 v 8.907 c 0.371,0.043 0.654,0.087 1.047,0.087 3.428,0 5.305,-2.38 5.305,-5.96 0,-3.602 -2.205,-6.0683 -5.698,-6.0683 -3.885,0 -5.675,2.4883 -5.675,6.1343 z m 8.819,-0.131 c 0,1.921 -0.633,2.794 -2.074,2.881 v -5.806 c 1.419,0.153 2.074,0.982 2.074,2.925 z"
     fill="#ffffff"
     id="path19" />
  <path
     d="m 193.34711,178.81036 6.687,3.22 2.122,0.877 -0.104,0.216 -2.434,-0.227 -7.227,-0.088 -1.724,3.579 4.575,5.595 1.695,1.762 -0.104,0.216 -2.018,-1.093 -6.687,-3.22 -1.42,2.95 13.177,6.346 1.932,-4.012 -5.05,-6.115 -2.511,-2.687 0.105,-0.216 3.684,0.248 7.978,0.037 1.922,-3.992 -13.177,-6.346 z"
     fill="#ffffff"
     id="path20" />
  <path
     d="m 182.36611,194.26136 c -2.328,2.918 -2.152,6.269 0.545,8.42 2.73,2.178 6.019,1.589 8.347,-1.329 2.327,-2.919 2.169,-6.256 -0.562,-8.434 -2.697,-2.15 -6.003,-1.576 -8.33,1.343 z m 2.27,1.81 c 1.388,-1.741 2.53,-1.807 4.032,-0.61 1.502,1.198 1.725,2.353 0.337,4.094 -1.375,1.724 -2.564,1.781 -4.066,0.583 -1.502,-1.198 -1.678,-2.343 -0.303,-4.067 z"
     fill="#ffffff"
     id="path21" />
  <path
     d="m 172.87911,201.02036 3.948,4.949 c 0.857,1.076 0.869,1.931 -0.274,2.843 -1.041,0.83 -1.743,0.72 -2.492,-0.218 l -0.708,-0.888 -2.56,2.042 1.13,1.416 c 1.334,1.673 3.167,2.361 5.078,0.837 1.724,-1.375 1.785,-3.155 0.921,-4.728 l 0.154,-0.122 1.81,2.27 2.372,-1.892 -6.818,-8.551 z"
     fill="#ffffff"
     id="path22" />
  <path
     d="m 159.09511,206.98636 c -3.127,1.506 -4.492,4.005 -3.459,6.149 l 0.104,0.216 2.95,-1.421 -0.095,-0.196 c -0.407,-0.846 -0.015,-1.592 1.735,-2.435 1.908,-0.919 2.929,-0.611 3.737,0.866 l -8.025,3.864 c 0.122,0.354 0.206,0.628 0.376,0.982 1.487,3.088 4.446,3.747 7.671,2.194 3.245,-1.563 4.511,-4.62 2.996,-7.767 -1.686,-3.501 -4.705,-4.034 -7.99,-2.452 z m 3.945,7.889 c -1.731,0.834 -2.792,0.642 -3.496,-0.618 l 5.232,-2.519 c 0.478,1.344 0.014,2.294 -1.736,3.137 z"
     fill="#ffffff"
     id="path23" />
  <path
     d="m 160.76011,149.09346 c 3.768,2.1755 3.768,7.6139 0,9.7899 l -31.7937,18.356 c -3.7682,2.175 -8.4783,-0.544 -8.4783,-4.895 v -36.712 c 0,-4.351 4.7101,-7.0704 8.4783,-4.8949 z"
     fill="#ffffff"
     id="path24" />
</svg>
