<svg width="49" height="40" viewBox="0 0 49 40" fill="none" xmlns="http://www.w3.org/2000/svg">
<g clip-path="url(#clip0_88_5813)">
<path d="M8.11326 17.4623C10.7555 17.4584 12.9006 15.3071 12.8968 12.6649C12.8929 10.0226 10.7416 7.87752 8.09937 7.88135C5.45713 7.88518 3.31203 10.0365 3.31586 12.6788C3.31969 15.321 5.47103 17.4661 8.11326 17.4623ZM41.6464 17.4136C44.2887 17.4098 46.4338 15.2585 46.43 12.6162C46.4261 9.974 44.2748 7.8289 41.6326 7.83273C38.9903 7.83656 36.8452 9.98789 36.849 12.6301C36.8529 15.2724 39.0042 17.4175 41.6464 17.4136ZM44.0451 19.8054L39.2547 19.8123C37.9373 19.8142 36.748 20.3474 35.8809 21.2095C38.8998 22.8593 41.0449 25.8427 41.5141 29.39L46.4543 29.3828C47.7791 29.3809 48.8479 28.309 48.846 26.9841L48.8425 24.5889C48.8387 21.9467 46.6874 19.8016 44.0451 19.8054ZM24.8833 19.8332C29.5166 19.8265 33.2612 16.071 33.2545 11.4377C33.2477 6.80446 29.4923 3.05987 24.859 3.06659C20.2257 3.0733 16.4812 6.82877 16.4879 11.462C16.4946 16.0953 20.2501 19.8399 24.8833 19.8332ZM30.6353 22.2201L30.0141 22.221C28.4583 22.9717 26.7299 23.4233 24.8885 23.426C23.0472 23.4287 21.325 22.9821 19.7595 22.2358L19.1383 22.2367C14.3777 22.2436 10.521 26.1116 10.5279 30.8721L10.5311 33.0278C10.5339 35.0113 12.1456 36.6183 14.1291 36.6154L35.6862 36.5841C37.6697 36.5813 39.2767 34.9696 39.2738 32.9861L39.2707 30.8304C39.2638 26.0699 35.3959 22.2132 30.6353 22.2201ZM13.8898 21.2413C13.0202 20.3818 11.8293 19.8521 10.512 19.854L5.72151 19.861C3.07927 19.8648 0.934167 22.0161 0.937998 24.6584L0.941472 27.0536C0.943393 28.3785 2.01531 29.4473 3.34017 29.4453L8.27284 29.4382C8.73926 25.8896 10.8757 22.8999 13.8898 21.2413Z" fill="white"/>
</g>
<defs>
<clipPath id="clip0_88_5813">
<rect width="47.9046" height="38.3237" fill="white" transform="translate(0.903564 0.706177) rotate(-0.0830849)"/>
</clipPath>
</defs>
</svg>
