<svg width="29" height="41" viewBox="0 0 29 41" fill="none" xmlns="http://www.w3.org/2000/svg">
<g clip-path="url(#clip0_88_5817)">
<path d="M21.6574 20.1113L7.28602 20.1321L7.29328 25.1403L21.6646 25.1195L21.6574 20.1113ZM28.302 8.2854L20.963 0.627219C20.6256 0.275569 20.1687 0.0805978 19.6897 0.0812924L19.2331 0.0819545L19.2476 10.0984L28.8285 10.0845L28.8279 9.60712C28.8271 9.11413 28.6393 8.63705 28.302 8.2854ZM16.8533 10.7279L16.8379 0.0854279L1.86771 0.107136C0.872193 0.10858 0.0725032 0.94705 0.0740125 1.98782L0.126665 38.2973C0.128174 39.3381 0.930293 40.1742 1.92581 40.1728L27.0757 40.1363C28.0712 40.1348 28.8709 39.2964 28.8694 38.2556L28.8322 12.5886L18.6525 12.6033C17.6644 12.6048 16.8548 11.7608 16.8533 10.7279ZM4.86991 5.73702C4.86941 5.39114 5.13697 5.11061 5.46781 5.11013L11.4559 5.10145C11.7867 5.10097 12.0551 5.38072 12.0556 5.7266L12.0574 6.97865C12.0579 7.32453 11.7904 7.60507 11.4595 7.60555L5.47144 7.61423C5.1406 7.61471 4.87223 7.33495 4.87173 6.98907L4.86991 5.73702ZM4.87718 10.7452C4.87668 10.3993 5.14423 10.1188 5.47508 10.1183L11.4631 10.1096C11.794 10.1092 12.0624 10.3889 12.0629 10.7348L12.0647 11.9869C12.0652 12.3327 11.7976 12.6133 11.4668 12.6138L5.47871 12.6224C5.14787 12.6229 4.87949 12.3432 4.87899 11.9973L4.87718 10.7452ZM24.0735 34.5064C24.074 34.8523 23.8064 35.1328 23.4756 35.1333L17.4875 35.142C17.1567 35.1425 16.8883 34.8627 16.8878 34.5168L16.886 33.2648C16.8855 32.9189 17.1531 32.6384 17.4839 32.6379L23.472 32.6292C23.8028 32.6287 24.0712 32.9085 24.0717 33.2544L24.0735 34.5064ZM24.0508 18.8558L24.0617 26.3681C24.0627 27.0598 23.5276 27.6209 22.8659 27.6219L6.0993 27.6462C5.43762 27.6471 4.90087 27.0876 4.89987 26.3959L4.88898 18.8836C4.88797 18.1918 5.42309 17.6307 6.08478 17.6298L22.8514 17.6055C23.5131 17.6045 24.0498 18.164 24.0508 18.8558Z" fill="white"/>
</g>
<defs>
<clipPath id="clip0_88_5817">
<rect width="28.7428" height="40.0657" fill="white" transform="translate(0.0712891 0.109741) rotate(-0.0830849)"/>
</clipPath>
</defs>
</svg>
