<svg width="43" height="43" viewBox="0 0 43 43" fill="none" xmlns="http://www.w3.org/2000/svg">
<g clip-path="url(#clip0_88_5774)">
<path d="M10.7607 0.58951C9.93607 0.590705 9.26855 1.26017 9.26974 2.08483L9.27407 5.07106L12.2603 5.06673L12.256 2.0805C12.2548 1.25584 11.5853 0.588314 10.7607 0.58951Z" fill="#F5F5FC"/>
<path d="M31.6641 0.559358C30.8394 0.560554 30.1719 1.23002 30.1731 2.05468L30.1774 5.04091L33.1636 5.03658L33.1593 2.05035C33.1582 1.22569 32.4887 0.558162 31.6641 0.559358Z" fill="#F5F5FC"/>
<path d="M37.6437 5.02998L33.1643 5.03647L33.1729 11.009C33.1741 11.8337 32.5066 12.5031 31.6819 12.5043C30.8573 12.5055 30.1878 11.838 30.1866 11.0133L30.178 5.0408L12.2604 5.06678L12.2691 11.0393C12.2703 11.864 11.6028 12.5335 10.7781 12.5346C9.95343 12.5358 9.28397 11.8683 9.28277 11.0437L9.27411 5.07112L4.79481 5.07761C2.32092 5.0812 0.318338 7.08959 0.321925 9.56349L0.363064 37.9329C0.366651 40.4068 2.37505 42.4094 4.84894 42.4058L37.6978 42.3582C40.1717 42.3546 42.1743 40.3462 42.1707 37.8723L42.1295 9.50286C42.1259 7.02897 40.1175 5.02639 37.6437 5.02998ZM39.1844 37.8766C39.1856 38.7013 38.518 39.3708 37.6934 39.372L4.84461 39.4196C4.01995 39.4208 3.35049 38.7533 3.34929 37.9286L3.32114 18.5179L39.1562 18.466L39.1844 37.8766Z" fill="#F5F5FC"/>
<path d="M12.2841 21.4909L9.29784 21.4953C8.47318 21.4965 7.80566 22.1659 7.80685 22.9906C7.80805 23.8153 8.47751 24.4828 9.30217 24.4816L12.2884 24.4773C13.1131 24.4761 13.7806 23.8066 13.7794 22.9819C13.7782 22.1573 13.1087 21.4897 12.2841 21.4909Z" fill="#F5F5FC"/>
<path d="M22.7362 21.4759L19.75 21.4803C18.9253 21.4815 18.2578 22.1509 18.259 22.9756C18.2602 23.8002 18.9297 24.4678 19.7543 24.4666L22.7405 24.4622C23.5652 24.461 24.2327 23.7916 24.2315 22.9669C24.2303 22.1423 23.5609 21.4747 22.7362 21.4759Z" fill="#F5F5FC"/>
<path d="M33.1874 21.4607L30.2012 21.465C29.3765 21.4662 28.709 22.1357 28.7102 22.9603C28.7114 23.785 29.3808 24.4525 30.2055 24.4513L33.1917 24.447C34.0164 24.4458 34.6839 23.7763 34.6827 22.9517C34.6815 22.127 34.012 21.4595 33.1874 21.4607Z" fill="#F5F5FC"/>
<path d="M12.2929 27.4636L9.30663 27.4679C8.48197 27.4691 7.81445 28.1386 7.81564 28.9633C7.81684 29.7879 8.4863 30.4554 9.31096 30.4542L12.2972 30.4499C13.1218 30.4487 13.7894 29.7793 13.7882 28.9546C13.787 28.1299 13.1175 27.4624 12.2929 27.4636Z" fill="#F5F5FC"/>
<path d="M22.745 27.4483L19.7588 27.4527C18.9341 27.4539 18.2666 28.1233 18.2678 28.948C18.269 29.7727 18.9385 30.4402 19.7631 30.439L22.7493 30.4347C23.574 30.4335 24.2415 29.764 24.2403 28.9393C24.2391 28.1147 23.5697 27.4471 22.745 27.4483Z" fill="#F5F5FC"/>
<path d="M33.1962 27.4332L30.21 27.4375C29.3853 27.4387 28.7178 28.1082 28.719 28.9329C28.7202 29.7575 29.3896 30.425 30.2143 30.4239L33.2005 30.4195C34.0252 30.4183 34.6927 29.7489 34.6915 28.9242C34.6902 28.0995 34.0208 27.432 33.1962 27.4332Z" fill="#F5F5FC"/>
<path d="M12.3016 33.4361L9.31542 33.4405C8.49076 33.4417 7.82324 34.1111 7.82443 34.9358C7.82563 35.7604 8.49509 36.4279 9.31975 36.4267L12.306 36.4224C13.1306 36.4212 13.7982 35.7517 13.797 34.927C13.7958 34.1024 13.1263 33.4349 12.3016 33.4361Z" fill="#F5F5FC"/>
<path d="M22.7528 33.4209L19.7666 33.4252C18.9419 33.4264 18.2744 34.0959 18.2756 34.9205C18.2768 35.7452 18.9463 36.4127 19.7709 36.4115L22.7572 36.4072C23.5818 36.406 24.2493 35.7365 24.2481 34.9119C24.2469 34.0872 23.5775 33.4197 22.7528 33.4209Z" fill="#F5F5FC"/>
<path d="M33.205 33.4059L30.2187 33.4102C29.3941 33.4114 28.7266 34.0808 28.7278 34.9055C28.7289 35.7302 29.3984 36.3977 30.2231 36.3965L33.2093 36.3922C34.034 36.391 34.7015 35.7215 34.7003 34.8968C34.6991 34.0722 34.0295 33.4047 33.205 33.4059Z" fill="#F5F5FC"/>
</g>
<defs>
<clipPath id="clip0_88_5774">
<rect width="41.8077" height="41.8077" fill="white" transform="translate(0.308594 0.604736) rotate(-0.0830849)"/>
</clipPath>
</defs>
</svg>
